<svg width="103" height="103" xmlns="http://www.w3.org/2000/svg" xmlns:xlink="http://www.w3.org/1999/xlink" xml:space="preserve" overflow="hidden"><defs><clipPath id="clip0"><rect x="283" y="340" width="103" height="103"/></clipPath></defs><g clip-path="url(#clip0)" transform="translate(-283 -340)"><path d="M380.944 379.722C380.878 378.759 380.178 377.96 379.233 377.767L367.888 375.45C367.183 375.304 366.451 375.524 365.943 376.035L363.651 378.326 348.416 363.09C348.232 366.212 346.547 369.051 343.894 370.708L357.582 384.395 355.368 386.61C354.865 387.113 354.644 387.832 354.778 388.53L356.972 399.993C357.156 400.952 357.963 401.665 358.937 401.73L370.316 402.489C370.364 402.489 370.413 402.494 370.461 402.494 371.646 402.533 372.638 401.604 372.677 400.419 372.716 399.233 371.787 398.241 370.602 398.203L360.874 397.559 359.206 388.841 368.162 379.886 376.773 381.64 377.423 391.386C377.502 392.57 378.525 393.465 379.708 393.386 380.892 393.307 381.787 392.284 381.708 391.101Z" fill="#EC7C30"/><path d="M329.072 394.655C329.073 391.207 328.087 387.829 326.23 384.923L318.659 393.968C314.742 398.663 307.76 399.294 303.064 395.377 298.368 391.46 297.737 384.477 301.655 379.782 302.081 379.271 302.553 378.799 303.064 378.373L303.342 378.139C296.874 381.091 292.723 387.545 292.721 394.655L292.721 415.104 329.072 415.104Z" fill="#EC7C30"/><path d="M329.135 362.531C329.135 361.878 329.202 361.227 329.333 360.587L305.127 380.841C301.802 383.626 301.365 388.58 304.151 391.904 306.936 395.229 311.89 395.666 315.215 392.88 315.568 392.584 315.895 392.258 316.191 391.904L333.843 370.808C330.928 369.068 329.141 365.926 329.135 362.531ZM312.959 387.107C312.121 387.946 310.762 387.946 309.924 387.108 309.086 386.27 309.086 384.911 309.924 384.073 310.762 383.235 312.12 383.235 312.959 384.073 312.959 384.073 312.959 384.073 312.959 384.073 313.797 384.911 313.797 386.27 312.959 387.107Z" fill="#EC7C30"/><path d="M329.135 419.396 292.656 419.396C290.286 419.396 288.365 421.317 288.365 423.688L288.365 427.979 333.427 427.979 333.427 423.688C333.427 421.317 331.506 419.396 329.135 419.396Z" fill="#EC7C30"/><path d="M338.792 356.094C335.236 356.094 332.354 358.976 332.354 362.531 332.354 366.087 335.236 368.969 338.792 368.969 342.347 368.969 345.229 366.087 345.229 362.531 345.229 358.976 342.347 356.094 338.792 356.094ZM338.792 364.141C337.903 364.141 337.182 363.42 337.182 362.531 337.182 361.642 337.903 360.922 338.792 360.922 339.68 360.922 340.401 361.642 340.401 362.531 340.401 363.42 339.68 364.141 338.792 364.141Z" fill="#EC7C30"/></g></svg>