<svg width="127" height="128" xmlns="http://www.w3.org/2000/svg" xmlns:xlink="http://www.w3.org/1999/xlink" xml:space="preserve" overflow="hidden"><defs><clipPath id="clip0"><rect x="269" y="267" width="127" height="128"/></clipPath></defs><g clip-path="url(#clip0)" transform="translate(-269 -267)"><path d="M17.1979 103.188 22.4896 103.188 22.4896 99.2188 47.625 99.2188 47.625 103.188 52.9167 103.188 52.9167 76.7292 17.1979 76.7292ZM31.75 82.0208 38.3646 82.0208C39.0952 82.0208 39.6875 82.6131 39.6875 83.3438 39.6875 84.0744 39.0952 84.6667 38.3646 84.6667L31.75 84.6667C31.0194 84.6667 30.4271 84.0744 30.4271 83.3438 30.4271 82.6131 31.0194 82.0208 31.75 82.0208Z" fill="#EC7C30" transform="matrix(1 0 0 1.00787 269 267)"/><path d="M68.7917 35.7188 72.7604 35.7188 72.7604 54.2396 68.7917 54.2396Z" fill="#EC7C30" transform="matrix(1 0 0 1.00787 269 267)"/><path d="M113.771 56.8854 13.2292 56.8854C11.7679 56.8854 10.5833 58.07 10.5833 59.5312 10.5833 60.9925 11.7679 62.1771 13.2292 62.1771L17.1979 62.1771 17.1979 74.0833 52.9167 74.0833 52.9167 62.1771 104.51 62.1771 104.51 103.188 109.802 103.188 109.802 62.1771 113.771 62.1771C115.232 62.1771 116.417 60.9925 116.417 59.5312 116.417 58.07 115.232 56.8854 113.771 56.8854ZM38.3646 68.7917 31.75 68.7917C31.0194 68.7917 30.4271 68.1994 30.4271 67.4688 30.4271 66.7381 31.0194 66.1458 31.75 66.1458L38.3646 66.1458C39.0952 66.1458 39.6875 66.7381 39.6875 67.4688 39.6875 68.1994 39.0952 68.7917 38.3646 68.7917Z" fill="#EC7C30" transform="matrix(1 0 0 1.00787 269 267)"/><path d="M37.0417 48.9479 36.4569 48.9479 36.4569 37.0747C36.4598 34.3493 38.6686 32.1405 41.3941 32.1376L43.7224 32.1376 44.8217 33.237C44.0842 35.9634 44.8573 38.8762 46.8498 40.8781L58.076 29.6519C56.0743 27.6599 53.1622 26.8868 50.4362 27.6238L47.7904 24.978C46.2463 23.4295 43.7393 23.4259 42.1909 24.9701 40.9971 26.1604 40.6879 27.9761 41.4205 29.4944L41.3941 29.4944C37.208 29.4988 33.8155 32.8913 33.8111 37.0774L33.8111 48.9479 33.0729 48.9479C30.1505 48.9479 27.7812 51.3171 27.7812 54.2396L42.3333 54.2396C42.3333 51.3171 39.9641 48.9479 37.0417 48.9479Z" fill="#EC7C30" transform="matrix(1 0 0 1.00787 269 267)"/><path d="M55.2688 38.0709C56.3017 37.0377 56.3017 35.3629 55.2688 34.3297L51.5276 38.0709C52.5608 39.1038 54.2356 39.1038 55.2688 38.0709Z" fill="#EC7C30" transform="matrix(1 0 0 1.00787 269 267)"/><path d="M92.6042 39.6875 100.542 39.6875 100.542 50.2708 92.6042 50.2708Z" fill="#EC7C30" transform="matrix(1 0 0 1.00787 269 267)"/><path d="M92.6042 51.5938 100.542 51.5938 100.542 54.2396 92.6042 54.2396Z" fill="#EC7C30" transform="matrix(1 0 0 1.00787 269 267)"/><path d="M92.6042 35.7188 100.542 35.7188 100.542 38.3646 92.6042 38.3646Z" fill="#EC7C30" transform="matrix(1 0 0 1.00787 269 267)"/><path d="M80.6979 33.0729 75.4062 33.0729 75.4062 54.2396 80.6979 54.2396ZM79.375 38.3646 76.7292 38.3646 76.7292 35.7188 79.375 35.7188Z" fill="#EC7C30" transform="matrix(1 0 0 1.00787 269 267)"/><path d="M89.9583 38.3646 83.3438 38.3646 83.3438 54.2396 89.9583 54.2396ZM86.651 51.5938C86.2858 51.5938 85.9896 51.2975 85.9896 50.9323 85.9896 50.567 86.2858 50.2708 86.651 50.2708 87.0163 50.2708 87.3125 50.567 87.3125 50.9323 87.3125 51.2975 87.0163 51.5938 86.651 51.5938ZM86.651 42.3333C86.2858 42.3333 85.9896 42.0371 85.9896 41.6719 85.9896 41.3066 86.2858 41.0104 86.651 41.0104 87.0163 41.0104 87.3125 41.3066 87.3125 41.6719 87.3125 42.0371 87.0163 42.3333 86.651 42.3333Z" fill="#EC7C30" transform="matrix(1 0 0 1.00787 269 267)"/></g></svg>