<svg width="97" height="106" xmlns="http://www.w3.org/2000/svg" xmlns:xlink="http://www.w3.org/1999/xlink" xml:space="preserve" overflow="hidden"><defs><clipPath id="clip0"><rect x="70" y="651" width="97" height="106"/></clipPath></defs><g clip-path="url(#clip0)" transform="translate(-70 -651)"><path d="M20.2083 43.4479C20.2083 47.3542 17.0417 50.5208 13.1354 50.5208 9.22915 50.5208 6.0625 47.3542 6.0625 43.4479 6.0625 39.5417 9.22915 36.375 13.1354 36.375 17.0417 36.375 20.2083 39.5417 20.2083 43.4479Z" fill="#EC7C30" transform="matrix(-1 0 0 1.09278 167 651)"/><path d="M12.125 7.07292C10.8903 8.44577 10.5029 10.3828 11.1146 12.125 12.024 14.8329 14.1458 15.1562 16.1667 16.1667 18.1875 17.1771 21.3501 14.9239 23.2396 16.1667 25.9374 17.9349 25.3311 21.1076 28.2917 23.2396 32.2525 26.0425 36.6596 28.1538 41.326 29.484 40.2709 29.5193 39.3102 30.1011 38.7899 31.0198L34.3542 38.9415 29.3021 43.0943 29.3021 27.6147C29.3021 25.9405 27.945 24.5834 26.2708 24.5834 24.5967 24.5834 23.2396 25.9405 23.2396 27.6147L23.2396 45.7315 21.2188 47.9039 20.9762 48.1464C20.9156 48.207 20.8752 48.2777 20.8146 48.3383L20.7135 48.5 20.7135 48.5C18.4092 51.4248 18.7671 55.6354 21.532 58.1293L33.3438 68.7083C33.6963 69.0168 34.0749 69.294 34.4754 69.5369L33.7176 70.5473C31.2926 70.4766 27.1903 72.2145 27.6551 73.8008L29.1404 78.4791C29.8128 80.608 32.0838 81.7887 34.2127 81.1162 36.3417 80.4438 37.5223 78.1729 36.8499 76.044L35.4353 71.588 36.1931 70.5776C36.5111 70.7482 36.8511 70.874 37.2035 70.9515L53.0873 74.2555 63.3733 83.9151C65 85.4442 67.5582 85.365 69.0872 83.7383 70.6163 82.1116 70.5371 79.5534 68.9104 78.0244L57.7958 67.5868C57.2572 67.0741 56.5847 66.7239 55.8558 66.5763L45.1858 64.3534 52.6023 54.7848 66.5258 56.5833C68.7413 56.8623 70.7634 55.2926 71.0424 53.0772 71.3214 50.8617 69.7517 48.8396 67.5362 48.5606L51.3696 46.5398C49.9521 46.3622 48.5461 46.9461 47.6715 48.0756L41.0128 56.5833 32.1211 48.5808 38.6383 43.2256C38.9402 43.0119 39.2005 42.7449 39.4062 42.4375L44.1249 34.0106C44.8625 32.6767 44.4948 31.0024 43.266 30.1003 44.5897 30.5045 46.0043 30.9086 47.5401 31.3532 56.3408 33.8692 63.5956 33.4448 67.7484 39.4366 69.1024 41.3867 72.9218 44.7918 72.8005 51.7333 72.7298 56.2499 69.5773 57.0582 70.7797 59.6449 72.1336 62.5044 76.0945 64.3736 79.8734 67.7282 83.6524 71.0828 85.0063 76.822 84.9255 80.8636 84.8649 83.8949 83.9151 86.9261 85.9359 88.947 87.3272 90.1983 89.1176 90.9145 90.988 90.9678L90.988 7.07292Z" fill="#EC7C30" transform="matrix(-1 0 0 1.09278 167 651)"/></g></svg>