<svg width="129" height="128" xmlns="http://www.w3.org/2000/svg" xmlns:xlink="http://www.w3.org/1999/xlink" xml:space="preserve" overflow="hidden"><defs><clipPath id="clip0"><rect x="54" y="353" width="129" height="128"/></clipPath></defs><g clip-path="url(#clip0)" transform="translate(-54 -353)"><path d="M101.333 24C101.333 29.891 84.6186 34.6667 64 34.6667 43.3814 34.6667 26.6667 29.891 26.6667 24 26.6667 18.109 43.3814 13.3333 64 13.3333 84.6186 13.3333 101.333 18.109 101.333 24Z" fill="#EC7C30" transform="matrix(1.00781 0 0 1 54 353)"/><path d="M90.6667 50.6667C89.0667 50.6667 88 49.6 88 48 88 46.4 89.0667 45.3333 90.6667 45.3333 92.2667 45.3333 93.3333 46.4 93.3333 48 93.3333 49.6 92.2667 50.6667 90.6667 50.6667ZM64 40C43.4667 40 26.6667 35.2 26.6667 29.3333L26.6667 50.6667C26.6667 56.5333 43.4667 61.3333 64 61.3333 84.5333 61.3333 101.333 56.5333 101.333 50.6667L101.333 29.3333C101.333 35.2 84.5333 40 64 40Z" fill="#EC7C30" transform="matrix(1.00781 0 0 1 54 353)"/><path d="M90.6667 77.3333C89.0667 77.3333 88 76.2667 88 74.6667 88 73.0667 89.0667 72 90.6667 72 92.2667 72 93.3333 73.0667 93.3333 74.6667 93.3333 76.2667 92.2667 77.3333 90.6667 77.3333ZM64 66.6667C43.4667 66.6667 26.6667 61.8667 26.6667 56L26.6667 77.3333C26.6667 83.2 43.4667 88 64 88 84.5333 88 101.333 83.2 101.333 77.3333L101.333 56C101.333 61.8667 84.5333 66.6667 64 66.6667Z" fill="#EC7C30" transform="matrix(1.00781 0 0 1 54 353)"/><path d="M90.6667 104C89.0667 104 88 102.933 88 101.333 88 99.7333 89.0667 98.6667 90.6667 98.6667 92.2667 98.6667 93.3333 99.7333 93.3333 101.333 93.3333 102.933 92.2667 104 90.6667 104ZM64 93.3333C43.4667 93.3333 26.6667 88.5333 26.6667 82.6667L26.6667 104C26.6667 109.867 43.4667 114.667 64 114.667 84.5333 114.667 101.333 109.867 101.333 104L101.333 82.6667C101.333 88.5333 84.5333 93.3333 64 93.3333Z" fill="#EC7C30" transform="matrix(1.00781 0 0 1 54 353)"/></g></svg>