<svg width="122" height="122" xmlns="http://www.w3.org/2000/svg" xmlns:xlink="http://www.w3.org/1999/xlink" xml:space="preserve" overflow="hidden"><defs><clipPath id="clip0"><rect x="56" y="229" width="122" height="122"/></clipPath></defs><g clip-path="url(#clip0)" transform="translate(-56 -229)"><path d="M43.9581 81.8544 29.4452 67.3542 43.9581 52.854 47.5419 56.4377 36.6381 67.3542 47.5419 78.2706 43.9581 81.8544Z" fill="#EC7C30" transform="matrix(-1 0 0 1 178 229)"/><path d="M78.0419 81.8544 74.4581 78.2706 85.3619 67.3542 74.4581 56.4377 78.0419 52.854 92.5548 67.3542 78.0419 81.8544Z" fill="#EC7C30" transform="matrix(-1 0 0 1 178 229)"/><path d="M45.0383 65.4988 76.7965 65.4988 76.7965 70.5821 45.0383 70.5821Z" fill="#EC7C30" transform="matrix(-0.382845 -0.923813 -0.923813 0.382845 203.264 327.274)"/><path d="M10.1667 21.6042 10.1667 100.396 111.833 100.396 111.833 21.6042ZM97.8542 29.2292C99.2579 29.2292 100.396 30.3671 100.396 31.7708 100.396 33.1746 99.2579 34.3125 97.8542 34.3125 96.4504 34.3125 95.3125 33.1746 95.3125 31.7708 95.3125 30.3671 96.4504 29.2292 97.8542 29.2292ZM88.9583 29.2292C90.3621 29.2292 91.5 30.3671 91.5 31.7708 91.5 33.1746 90.3621 34.3125 88.9583 34.3125 87.5546 34.3125 86.4167 33.1746 86.4167 31.7708 86.4167 30.3671 87.5546 29.2292 88.9583 29.2292ZM80.0625 29.2292C81.4663 29.2292 82.6042 30.3671 82.6042 31.7708 82.6042 33.1746 81.4663 34.3125 80.0625 34.3125 78.6587 34.3125 77.5208 33.1746 77.5208 31.7708 77.5208 30.3671 78.6587 29.2292 80.0625 29.2292ZM104.208 92.7708 17.7917 92.7708 17.7917 41.9375 104.208 41.9375Z" fill="#EC7C30" transform="matrix(-1 0 0 1 178 229)"/></g></svg>