<svg width="89" height="90" xmlns="http://www.w3.org/2000/svg" xmlns:xlink="http://www.w3.org/1999/xlink" xml:space="preserve" overflow="hidden"><defs><clipPath id="clip0"><rect x="263" y="140" width="89" height="90"/></clipPath></defs><g clip-path="url(#clip0)" transform="translate(-263 -140)"><path d="M7.41667 18.5417 7.41667 70.4583 81.5833 70.4583 81.5833 18.5417 7.41667 18.5417ZM45.7979 50.8969C45.0562 51.6385 43.9438 51.6385 43.2021 50.8969L15.7604 24.1042 73.3323 24.1042 45.7979 50.8969ZM31.0573 44.2219 12.9792 62.3927 12.9792 26.5146 31.0573 44.2219ZM33.7458 46.8177 40.699 53.5854C41.8115 54.6052 43.2021 55.1615 44.5927 55.1615 45.9833 55.1615 47.374 54.6052 48.4865 53.5854L55.4396 46.8177 73.425 64.8958 15.6677 64.8958 33.7458 46.8177ZM57.9427 44.2219 76.0208 26.6073 76.0208 62.3 57.9427 44.2219Z" fill="#EC7C30" transform="matrix(1 0 0 1.01124 263 140)"/></g></svg>