<svg width="121" height="120" xmlns="http://www.w3.org/2000/svg" xmlns:xlink="http://www.w3.org/1999/xlink" xml:space="preserve" overflow="hidden"><defs><clipPath id="clip0"><rect x="271" y="231" width="121" height="120"/></clipPath></defs><g clip-path="url(#clip0)" transform="translate(-271 -231)"><path d="M12.5 42.5 21.25 42.5 21.25 47.5 12.5 47.5Z" fill="#EC7C30" transform="matrix(1.00833 0 0 1 271 231)"/><path d="M12.5 32.5 21.25 32.5 21.25 37.5 12.5 37.5Z" fill="#EC7C30" transform="matrix(1.00833 0 0 1 271 231)"/><path d="M12.5 52.5 21.25 52.5 21.25 57.5 12.5 57.5Z" fill="#EC7C30" transform="matrix(1.00833 0 0 1 271 231)"/><path d="M12.5 82.5 21.25 82.5 21.25 87.5 12.5 87.5Z" fill="#EC7C30" transform="matrix(1.00833 0 0 1 271 231)"/><path d="M12.5 72.5 21.25 72.5 21.25 77.5 12.5 77.5Z" fill="#EC7C30" transform="matrix(1.00833 0 0 1 271 231)"/><path d="M12.5 62.5 21.25 62.5 21.25 67.5 12.5 67.5Z" fill="#EC7C30" transform="matrix(1.00833 0 0 1 271 231)"/><path d="M98.75 72.5 107.5 72.5 107.5 77.5 98.75 77.5Z" fill="#EC7C30" transform="matrix(1.00833 0 0 1 271 231)"/><path d="M98.75 82.5 107.5 82.5 107.5 87.5 98.75 87.5Z" fill="#EC7C30" transform="matrix(1.00833 0 0 1 271 231)"/><path d="M98.75 62.5 107.5 62.5 107.5 67.5 98.75 67.5Z" fill="#EC7C30" transform="matrix(1.00833 0 0 1 271 231)"/><path d="M98.75 32.5 107.5 32.5 107.5 37.5 98.75 37.5Z" fill="#EC7C30" transform="matrix(1.00833 0 0 1 271 231)"/><path d="M98.75 52.5 107.5 52.5 107.5 57.5 98.75 57.5Z" fill="#EC7C30" transform="matrix(1.00833 0 0 1 271 231)"/><path d="M98.75 42.5 107.5 42.5 107.5 47.5 98.75 47.5Z" fill="#EC7C30" transform="matrix(1.00833 0 0 1 271 231)"/><path d="M62.5 12.5 67.5 12.5 67.5 21.25 62.5 21.25Z" fill="#EC7C30" transform="matrix(1.00833 0 0 1 271 231)"/><path d="M82.5 12.5 87.5 12.5 87.5 21.25 82.5 21.25Z" fill="#EC7C30" transform="matrix(1.00833 0 0 1 271 231)"/><path d="M72.5 12.5 77.5 12.5 77.5 21.25 72.5 21.25Z" fill="#EC7C30" transform="matrix(1.00833 0 0 1 271 231)"/><path d="M52.5 12.5 57.5 12.5 57.5 21.25 52.5 21.25Z" fill="#EC7C30" transform="matrix(1.00833 0 0 1 271 231)"/><path d="M32.5 12.5 37.5 12.5 37.5 21.25 32.5 21.25Z" fill="#EC7C30" transform="matrix(1.00833 0 0 1 271 231)"/><path d="M42.5 12.5 47.5 12.5 47.5 21.25 42.5 21.25Z" fill="#EC7C30" transform="matrix(1.00833 0 0 1 271 231)"/><path d="M42.5 98.75 47.5 98.75 47.5 107.5 42.5 107.5Z" fill="#EC7C30" transform="matrix(1.00833 0 0 1 271 231)"/><path d="M32.5 98.75 37.5 98.75 37.5 107.5 32.5 107.5Z" fill="#EC7C30" transform="matrix(1.00833 0 0 1 271 231)"/><path d="M52.5 98.75 57.5 98.75 57.5 107.5 52.5 107.5Z" fill="#EC7C30" transform="matrix(1.00833 0 0 1 271 231)"/><path d="M62.5 98.75 67.5 98.75 67.5 107.5 62.5 107.5Z" fill="#EC7C30" transform="matrix(1.00833 0 0 1 271 231)"/><path d="M72.5 98.75 77.5 98.75 77.5 107.5 72.5 107.5Z" fill="#EC7C30" transform="matrix(1.00833 0 0 1 271 231)"/><path d="M82.5 98.75 87.5 98.75 87.5 107.5 82.5 107.5Z" fill="#EC7C30" transform="matrix(1.00833 0 0 1 271 231)"/><path d="M43.75 43.75 76.25 43.75 76.25 76.25 43.75 76.25Z" fill="#EC7C30" transform="matrix(1.00833 0 0 1 271 231)"/><path d="M88.75 26.25 31.25 26.25C28.4886 26.25 26.25 28.4886 26.25 31.25L26.25 88.75C26.25 91.5114 28.4886 93.75 31.25 93.75L88.75 93.75C91.5114 93.75 93.75 91.5114 93.75 88.75L93.75 31.25C93.75 28.4886 91.5114 26.25 88.75 26.25ZM81.25 81.25 38.75 81.25 38.75 38.75 81.25 38.75Z" fill="#EC7C30" transform="matrix(1.00833 0 0 1 271 231)"/></g></svg>