<svg width="93" height="95" xmlns="http://www.w3.org/2000/svg" xmlns:xlink="http://www.w3.org/1999/xlink" xml:space="preserve" overflow="hidden"><defs><clipPath id="clip0"><rect x="72" y="96" width="93" height="95"/></clipPath></defs><g clip-path="url(#clip0)" transform="translate(-72 -96)"><path d="M37.975 28.2875C38.75 27.5125 39.2344 26.4469 39.2344 25.2844 39.2344 24.1219 38.75 23.0562 37.975 22.2812L24.6062 9.00938C23.8313 8.23438 22.7656 7.75 21.7 7.75 20.6344 7.75 19.4719 8.23438 18.6969 9.00938L17.2437 10.4625 36.5219 29.7406 37.975 28.2875Z" fill="#EC7C30" transform="matrix(1 0 0 1.02151 72 96)"/><path d="M57.4469 62.4844C57.0594 62.8719 56.4781 63.0656 55.9937 63.0656 55.5094 63.0656 54.9281 62.8719 54.5406 62.4844L30.5156 38.5562C30.1281 38.1688 29.9344 37.5875 29.9344 37.1031 29.9344 36.6187 30.1281 36.0375 30.5156 35.65L33.5187 32.7437 14.2406 13.4656C12.9812 14.725 11.8187 15.8875 11.0437 16.6625 9.10625 18.5031 7.94375 20.925 7.84688 23.5406 7.55625 27.9 8.62187 32.0656 10.075 36.1344 11.625 39.7188 13.6594 43.1094 15.8875 46.3062 23.8313 58.2219 33.8094 68.5875 45.4344 76.8219 47.3719 78.275 49.4062 79.5344 51.5375 80.6969 56.3813 83.1188 61.5156 84.8625 67.0375 85.25 70.7188 85.5406 74.4 84.0875 76.9188 81.375L79.5344 78.7594 60.3531 59.4813 57.4469 62.4844Z" fill="#EC7C30" transform="matrix(1 0 0 1.02151 72 96)"/><path d="M83.9906 68.3937 70.6219 55.025C69.8469 54.25 68.7812 53.7656 67.6188 53.7656 66.4562 53.7656 65.3906 54.25 64.6156 55.025L63.1625 56.575 82.4406 75.8531 83.8937 74.4C84.6688 73.625 85.1531 72.5594 85.1531 71.3969 85.1531 70.2344 84.7656 69.1688 83.9906 68.3937Z" fill="#EC7C30" transform="matrix(1 0 0 1.02151 72 96)"/></g></svg>