<svg width="138" height="138" xmlns="http://www.w3.org/2000/svg" xmlns:xlink="http://www.w3.org/1999/xlink" xml:space="preserve" overflow="hidden"><defs><clipPath id="clip0"><rect x="262" y="480" width="138" height="138"/></clipPath></defs><g clip-path="url(#clip0)" transform="translate(-262 -480)"><path d="M297.794 570.419 293.769 566.394 306.131 554.031 293.769 541.669 297.794 537.644 314.181 554.031Z" fill="#EC7C30"/><path d="M273.5 504.438 273.5 593.562 388.5 593.562 388.5 504.438 273.5 504.438ZM372.688 513.062C374.269 513.062 375.562 514.356 375.562 515.938 375.562 517.519 374.269 518.812 372.688 518.812 371.106 518.812 369.812 517.519 369.812 515.938 369.812 514.356 371.106 513.062 372.688 513.062ZM362.625 513.062C364.206 513.062 365.5 514.356 365.5 515.938 365.5 517.519 364.206 518.812 362.625 518.812 361.044 518.812 359.75 517.519 359.75 515.938 359.75 514.356 361.044 513.062 362.625 513.062ZM352.562 513.062C354.144 513.062 355.438 514.356 355.438 515.938 355.438 517.519 354.144 518.812 352.562 518.812 350.981 518.812 349.688 517.519 349.688 515.938 349.688 514.356 350.981 513.062 352.562 513.062ZM379.875 584.938 282.125 584.938 282.125 527.438 379.875 527.438 379.875 584.938Z" fill="#EC7C30"/><path d="M316.625 564.812 339.625 564.812 339.625 570.562 316.625 570.562Z" fill="#EC7C30"/></g></svg>