<svg width="85" height="86" xmlns="http://www.w3.org/2000/svg" xmlns:xlink="http://www.w3.org/1999/xlink" xml:space="preserve" overflow="hidden"><defs><clipPath id="clip0"><rect x="422" y="22" width="85" height="86"/></clipPath></defs><g clip-path="url(#clip0)" transform="translate(-422 -22)"><path d="M28.3333 54.8958C28.3333 58.8079 25.162 61.9792 21.25 61.9792 17.338 61.9792 14.1667 58.8079 14.1667 54.8958 14.1667 50.9838 17.338 47.8125 21.25 47.8125 25.162 47.8125 28.3333 50.9838 28.3333 54.8958Z" fill="#EC7C30" transform="matrix(1 0 0 1.01176 422 22)"/><path d="M70.8333 54.8958C70.8333 58.8079 67.662 61.9792 63.75 61.9792 59.838 61.9792 56.6667 58.8079 56.6667 54.8958 56.6667 50.9838 59.838 47.8125 63.75 47.8125 67.662 47.8125 70.8333 50.9838 70.8333 54.8958Z" fill="#EC7C30" transform="matrix(1 0 0 1.01176 422 22)"/><path d="M34.5312 37.1875 34.5312 26.5625 46.6615 26.5625C47.6354 26.5625 48.5208 26.9167 49.1406 27.625L58.7031 37.1875 34.5312 37.1875ZM30.9896 37.1875 8.58854 37.1875 18.151 27.625C18.8594 26.9167 19.7448 26.5625 20.6302 26.5625L30.9896 26.5625 30.9896 37.1875ZM72.6042 37.1875 65.2552 37.1875C64.2812 37.1875 63.3958 36.8333 62.776 36.125L51.6198 25.0573C50.2917 23.7292 48.5208 23.0208 46.5729 23.0208L20.6302 23.0208C18.7708 23.0208 16.9115 23.7292 15.5833 25.0573L4.60417 36.125C3.89583 36.8333 3.54167 37.7188 3.54167 38.6927L3.54167 47.8125C3.54167 51.7083 6.72917 54.8958 10.625 54.8958L11.5104 54.8958C11.5104 49.4948 15.849 45.1562 21.25 45.1562 26.651 45.1562 30.9896 49.4948 30.9896 54.8958L54.0104 54.8958C54.0104 49.4948 58.349 45.1562 63.75 45.1562 69.151 45.1562 73.4896 49.4948 73.4896 54.8958L77.9167 54.8958C79.8646 54.8958 81.4583 53.3021 81.4583 51.3542L81.4583 46.0417C81.4583 41.1719 77.474 37.1875 72.6042 37.1875Z" fill="#EC7C30" transform="matrix(1 0 0 1.01176 422 22)"/></g></svg>